<svg width="34" height="33" viewBox="0 0 34 33" fill="none" xmlns="http://www.w3.org/2000/svg">
<path d="M19.2535 0L19.1816 0.00028787C18.9909 0.00153533 18.8076 0.0108431 18.6315 0.0275396C17.6368 0.170035 17.0969 0.241043 17.0116 0.240755C17.0034 0.240755 16.9994 0.239988 16.9994 0.238836L16.5734 0.214751C16.0286 0.134435 15.6046 0.0806036 15.3014 0.0535438C15.1603 0.0380948 14.951 0.0292668 14.6732 0.02658C14.6657 0.02658 14.6583 0.02658 14.651 0.02658C14.133 0.0250447 13.6109 0.0943254 13.0857 0.234422C12.1742 0.464814 11.6473 0.611916 11.5047 0.675343C10.852 0.892973 10.2653 1.13939 9.74484 1.41469C9.04163 1.77309 8.76858 2.08015 8.92541 2.33616C9.8216 2.56924 10.6071 2.81268 11.282 3.06668C12.077 3.38881 12.5209 3.58504 12.6134 3.65576C12.868 3.79067 13.0946 3.92818 13.2937 4.06828L13.7892 3.45655C13.872 3.3772 14.1199 3.19469 14.5325 2.90874C14.9857 2.59927 15.5216 2.34422 16.14 2.14406C16.445 2.03716 16.8635 1.98467 17.3949 1.98611C17.9472 1.98755 18.6216 2.04781 19.4183 2.16613C20.1816 2.27177 20.8759 2.40122 21.5011 2.55504C22.1736 2.73141 22.6819 2.88619 23.026 3.01909C23.3447 3.1375 23.6826 3.31338 24.0402 3.54723C24.3978 3.78079 24.7746 4.07211 25.1712 4.42101C25.2063 4.44337 25.2345 4.45441 25.2551 4.45441C25.2569 4.45441 25.2589 4.45441 25.2607 4.45412C25.2631 4.45441 25.2659 4.4546 25.2684 4.4546C25.2953 4.4546 25.3253 4.43598 25.3582 4.39865C25.4203 4.17901 25.446 3.96157 25.435 3.74663C25.4242 3.53169 25.3766 3.31905 25.2925 3.109C25.0185 2.58747 24.8101 2.27772 24.6674 2.17918C24.4736 1.97604 24.2434 1.77529 23.9764 1.57686C23.6687 1.35999 23.3541 1.16511 23.033 0.99248L22.5465 0.750765C22.2188 0.600401 21.8844 0.472683 21.5433 0.367322C20.9153 0.156985 20.1519 0.0346404 19.2535 0ZM18.8761 3.0756H18.8398C18.2116 3.08443 17.65 3.15909 17.1548 3.30005C16.1353 3.65509 15.6587 3.89258 15.7249 4.01272C16.1091 4.11366 16.4971 4.23994 16.8891 4.39146L17.4799 4.63816C17.8759 4.81501 18.276 5.01738 18.6796 5.24538C19.4874 5.70079 20.3108 6.25791 21.15 6.91656C21.7131 7.36976 22.2138 7.88562 22.6519 8.46463C22.8712 8.75374 23.0747 9.05879 23.2627 9.37967C23.3762 9.52044 23.623 10.0368 24.0033 10.929L24.3781 11.0962C25.0026 10.6074 25.2091 9.85446 24.9976 8.83752L24.8988 8.44371C24.4135 7.43511 24.0372 6.52131 23.7699 5.70251C23.6828 5.49055 23.5522 5.24931 23.3779 4.9791C22.9572 4.37726 22.2821 3.89968 21.3524 3.54646C20.5754 3.23499 19.7497 3.078 18.8761 3.0756ZM14.96 4.74429L14.7627 4.74794C14.2373 4.76857 13.7241 4.87815 13.2223 5.07611C12.7969 5.22427 11.8767 5.65933 10.4623 6.38179L9.72068 6.81264C9.25583 7.09926 8.8508 7.38425 8.50498 7.66771C8.15927 7.95116 7.87307 8.23347 7.6464 8.51395C6.29578 10.5593 6.09677 12.3053 7.04887 13.7522C7.01195 13.5228 7.00474 13.283 7.02715 13.0332C7.00124 12.9211 7.10196 12.524 7.32893 11.8425C7.5521 11.2835 7.89402 10.684 8.35487 10.0451C8.60844 9.65603 9.15784 9.13325 10.0027 8.47739C10.5054 8.12216 11.059 7.81759 11.663 7.56331C12.1416 7.39433 12.8019 7.22064 13.644 7.04178C14.1209 6.95609 14.5298 6.91358 14.8709 6.91454C15.0311 6.91502 15.1759 6.92491 15.3064 6.94458C15.5401 6.98507 15.7386 7.04005 15.9021 7.10962C17.6198 7.97035 18.5914 8.45081 18.8176 8.5508L19.3907 8.81199L19.5552 8.87734C19.5981 8.89202 19.6266 8.89941 19.6407 8.89941C19.6535 8.89941 19.6547 8.89355 19.644 8.88175H19.6442L19.8792 8.9874C19.8271 7.77825 19.2288 6.71361 18.0842 5.79319C17.3051 5.16756 16.2637 4.81799 14.96 4.74429ZM8.60123 3.52113L8.43689 3.52219C7.68624 3.52612 6.8334 3.64501 5.87857 3.87934C5.49876 3.99353 5.13113 4.14216 4.77577 4.32544L4.25237 4.62588C3.5664 5.06066 2.92972 5.63352 2.34232 6.34389C2.16494 6.62178 2.03226 6.9251 1.9443 7.25327C1.76837 7.9099 1.7711 8.66681 1.95268 9.52409C2.18296 10.4873 2.49448 11.3387 2.88724 12.0784C3.51954 13.2523 4.60773 14.0993 6.1521 14.6191C6.16087 14.6203 6.16934 14.6208 6.17733 14.6211C6.26081 14.6213 6.29354 14.5562 6.27484 14.4265C5.73488 13.2438 5.46807 12.2346 5.4746 11.3989C5.46213 10.3703 5.75933 9.348 6.36631 8.33173C6.69673 7.8861 7.05111 7.48002 7.42985 7.11356L8.01646 6.59328C8.41965 6.26655 8.8468 5.97916 9.2987 5.7313C9.7503 5.48345 10.2263 5.27531 10.7267 5.10682C11.2269 4.93832 11.7515 4.80935 12.3004 4.71992L12.4765 4.75772C12.0159 4.39319 11.5047 4.10925 10.9431 3.90611C10.8184 3.82992 10.3691 3.72283 9.59473 3.58456C9.276 3.5433 8.9448 3.52219 8.60123 3.52113ZM13.8463 7.95068C13.8196 7.95049 13.7937 7.95116 13.7687 7.95241L13.6665 7.95366C12.8198 7.97035 11.963 8.2136 11.0959 8.68322C10.2481 9.16569 9.51612 9.7705 8.90018 10.4974L8.51989 11.0277L8.22317 11.5782L8.00994 12.1494L7.87999 12.7406L7.83362 13.3526L7.87083 13.9851L7.99153 14.6378C8.10939 14.3204 8.24636 14.0094 8.40192 13.7048C8.55778 13.4004 8.73234 13.1022 8.92561 12.8106L9.23012 12.3778C9.65454 11.8072 10.1548 11.2623 10.7304 10.743C11.2414 10.2701 11.8914 9.80783 12.6809 9.35607C12.9845 9.19371 13.2944 9.05265 13.6106 8.93261C13.9493 8.80192 14.4179 8.64714 15.0164 8.46827C15.0693 8.44716 15.1034 8.42605 15.1184 8.40446C15.135 8.31158 15.0258 8.21696 14.7912 8.12043C14.4037 8.00797 14.0887 7.95145 13.8463 7.95068ZM7.99153 14.6378L7.98753 14.649C7.97652 14.6788 7.96552 14.7085 7.95509 14.7383L7.99221 14.6407L7.99153 14.6378ZM15.8313 13.2754C15.8226 13.2754 15.8139 13.2756 15.8051 13.2759L15.7618 13.2764C15.5745 13.2845 15.4036 13.3197 15.2493 13.3815C15.1732 13.4039 15.0517 13.482 14.8847 13.6159C14.7992 13.677 14.6976 13.7979 14.5802 13.9779C14.494 14.1239 14.455 14.2602 14.463 14.3875C14.4673 14.4235 14.5021 14.4445 14.5675 14.4496C14.8527 14.4032 15.0874 14.3804 15.2715 14.3808C15.3628 14.381 15.4418 14.387 15.5081 14.3988C15.664 14.409 15.8366 14.4854 16.0251 14.6277C16.1049 14.6936 16.1717 14.7695 16.2256 14.8556C16.2732 14.9146 16.3203 15.0381 16.3667 15.2266C16.387 15.4324 16.3849 15.5663 16.3608 15.6288C16.34 15.7209 16.3039 15.8009 16.2522 15.8689C16.3777 15.8437 16.4971 15.7963 16.6098 15.7267C16.7211 15.6543 16.8221 15.5535 16.9131 15.4248C17.0093 15.2919 17.0854 15.1394 17.141 14.9674C17.1667 14.8884 17.1856 14.8115 17.1976 14.7365C17.2149 14.5533 17.2168 14.4457 17.2037 14.4142C17.1592 14.1273 17.0002 13.8703 16.7261 13.6434C16.4201 13.399 16.1218 13.2764 15.8313 13.2754ZM17.0461 9.29168L16.6877 9.30348C15.754 9.36077 14.9959 9.62091 14.4134 10.0839L14.7622 10.0876L15.3374 10.2198L15.8702 10.3763C16.2111 10.4887 16.5243 10.6172 16.8091 10.7619C17.3789 11.0515 17.8363 11.4055 18.1807 11.8244C18.3253 12.002 18.4974 12.2591 18.6971 12.5964L18.949 13.0671C19.1079 13.3889 19.2487 13.7274 19.3715 14.0823C19.4941 14.4375 19.5986 14.809 19.6851 15.1969C19.7719 15.585 19.8402 15.9894 19.8909 16.4104L19.9527 17.0542C20.1388 16.6383 20.2694 16.2075 20.3455 15.7618C20.3814 15.6552 20.4073 15.3126 20.423 14.7341C20.432 14.3681 20.3547 13.7831 20.1914 12.9794C20.1674 12.7898 20.0467 12.3478 19.829 11.6532C19.5365 10.8331 19.1989 10.2635 18.8158 9.94514C18.6854 9.83211 18.5441 9.73385 18.3919 9.64988L18.1553 9.53493C17.829 9.39608 17.4593 9.31509 17.0461 9.29168ZM14.3328 13.4071L14.1281 13.5122C13.8675 13.6638 13.6568 13.8615 13.4962 14.1062C13.4159 14.2283 13.3478 14.3621 13.2927 14.5076L13.2188 14.7345C13.1199 15.0809 13.0757 15.4135 13.0865 15.7321C13.1052 16.0392 13.1952 16.3094 13.356 16.543C13.5398 16.7874 13.7488 16.9732 13.9827 17.1002C14.2152 17.237 14.4697 17.335 14.7461 17.394C14.9206 17.437 15.1341 17.4588 15.3864 17.4595C15.4932 17.4598 15.6066 17.4563 15.7273 17.4492L15.9508 17.4042C16.0979 17.3672 16.241 17.3154 16.38 17.2493C16.6583 17.1169 16.9209 16.9263 17.1674 16.6778C17.2909 16.5536 17.4104 16.415 17.5258 16.2618C17.7585 15.9228 17.8709 15.7341 17.8629 15.6965C17.8599 15.6913 17.8565 15.6889 17.8522 15.6889C17.8495 15.6889 17.8468 15.6899 17.8436 15.6919C17.4006 15.9492 17.0323 16.1492 16.7388 16.2922C16.4453 16.435 16.2263 16.5207 16.0822 16.5489C15.936 16.5703 15.7954 16.5808 15.6603 16.5804C15.5067 16.5799 15.3607 16.5654 15.2218 16.5369C15.1336 16.518 15.0471 16.4927 14.9622 16.4613C14.754 16.3718 14.6313 16.3106 14.5944 16.2777L14.4772 16.1979L14.2458 15.9609L14.0622 15.7135L13.9263 15.4563L13.8388 15.189L13.7989 14.9117L13.8071 14.6245C13.8283 14.4295 13.8817 14.2278 13.967 14.0198L14.1188 13.7021L14.3328 13.4071ZM11.8914 10.9624L11.7464 11.0068C11.353 11.1628 10.9067 11.6141 10.4074 12.3604C10.2037 12.7426 10.0823 12.9899 10.0441 13.1025C9.9648 13.2899 9.88648 13.4923 9.80913 13.7097C9.65454 14.1445 9.50394 14.6392 9.35753 15.1939L9.27921 15.6621L9.24259 16.1215L9.24755 16.5712L9.29421 17.0123L9.38227 17.4439L9.51193 17.8664L9.68328 18.2797L9.89593 18.6841L10.1504 19.0791L10.1625 19.0779C10.1628 19.0779 10.1633 19.0779 10.1635 19.0779C10.1787 19.0781 10.187 19.0504 10.1883 18.9948C10.0778 17.9941 10.0286 17.2439 10.0409 16.744C10.0628 15.9564 10.1301 15.3082 10.2431 14.7986L10.3852 14.1919L10.5059 13.7965C10.5942 13.5326 10.6984 13.268 10.8184 13.0025L11.0104 12.6038C11.1461 12.3377 11.298 12.0708 11.4655 11.8032C11.6331 11.5354 11.8164 11.2669 12.0156 10.998L11.8914 10.9624ZM15.3635 11.3164L15.155 11.3238C14.2939 11.4217 13.5416 11.8403 12.8982 12.5793C12.7029 12.8023 12.5321 13.0455 12.386 13.3091L12.1847 13.7195C11.9413 14.2867 11.7959 14.935 11.7483 15.6636L12.1194 15.3647C12.1149 15.0493 12.4288 14.4329 13.061 13.5162C13.4672 12.949 13.8052 12.5908 14.0742 12.4415C14.6059 12.1402 15.1106 11.9905 15.5887 11.9919C16.1426 11.9933 16.6605 12.198 17.1428 12.6053C17.3891 12.8426 17.6073 13.154 17.7971 13.54C17.8919 13.7328 17.9796 13.9443 18.0602 14.1747C18.1555 14.4142 18.2146 14.6537 18.2373 14.893C18.2976 15.3256 18.0632 16.0223 17.5333 16.9822C17.3433 17.302 17.1106 17.6023 16.8355 17.8823C16.6981 18.0226 16.5502 18.1577 16.3914 18.2879L16.1455 18.4792C16.0724 18.5183 15.9979 18.5539 15.9221 18.5863C15.6117 18.7161 15.2947 18.7932 14.9715 18.8175C14.9266 18.8192 14.8807 18.82 14.8333 18.8197C14.5261 18.8189 14.1668 18.7802 13.755 18.7033C13.7491 18.703 13.7433 18.7028 13.738 18.7028C13.6931 18.7025 13.6693 18.7126 13.6663 18.7323C13.7964 18.8487 13.9373 18.9561 14.0892 19.0543C14.2411 19.1523 14.4037 19.2415 14.5774 19.3214L14.8463 19.4343C15.4515 19.6436 15.9188 19.7488 16.2487 19.7497C16.2969 19.7497 16.3421 19.7478 16.3841 19.7434C16.8769 19.7149 17.34 19.5971 17.7729 19.3899C17.9173 19.3208 18.0583 19.2417 18.1959 19.1528C18.355 19.0187 18.4859 18.8592 18.5882 18.6737C18.7356 18.4753 18.831 18.0604 18.8745 17.4291C18.9428 16.2156 18.933 15.3899 18.8455 14.9522C18.7974 14.4862 18.6595 13.9656 18.4318 13.3909L18.2522 13.0315C18.1233 12.8033 17.9755 12.5977 17.8091 12.4152C17.6425 12.2327 17.4572 12.073 17.253 11.9361C16.9924 11.7779 16.8258 11.6848 16.7532 11.6576C16.2764 11.4313 15.8131 11.3176 15.3635 11.3164ZM21.8248 10.8835L21.9792 11.2783C22.0823 11.5726 22.1627 11.8897 22.2198 12.2297C22.2769 12.5694 22.3111 12.932 22.3218 13.3172L22.321 13.9119C22.2968 14.7279 22.1801 15.6346 21.9709 16.6322C21.637 18.0044 21.2769 19.0963 20.8906 19.9081C20.7757 20.1624 20.5894 20.4865 20.3318 20.8805C20.204 21.0659 19.9679 21.3437 19.6231 21.7137C19.6014 21.7461 19.5943 21.7692 19.6021 21.7825C19.6026 21.7825 19.6031 21.7825 19.6036 21.7825C20.0205 21.7837 20.4331 21.6835 20.841 21.482C21.0455 21.3828 21.2498 21.2592 21.4535 21.1118C21.5559 21.0682 21.8599 20.7932 22.3659 20.2867C22.7779 19.7539 23.123 19.2069 23.4008 18.6455L23.5968 18.2221C23.7191 17.9379 23.8246 17.6502 23.913 17.3589C24.0018 17.0677 24.0736 16.7727 24.1288 16.4745L24.2076 16.0856C24.2519 15.8292 24.2808 15.5781 24.2938 15.3324C24.3068 15.0871 24.3038 14.8471 24.2851 14.6125C24.2479 14.1435 24.1472 13.6965 23.9833 13.2715C23.8823 13.0425 23.7681 12.8254 23.6409 12.6196C23.5936 12.5021 23.3734 12.2196 22.9801 11.7716C22.6474 11.4293 22.2622 11.1334 21.8248 10.8835ZM1.75892 10.6045L1.69531 10.6356C1.54715 10.6878 1.22988 11.2033 0.743308 12.182C0.471724 12.8205 0.314014 13.3159 0.269886 13.6689C0.169455 14.7112 0.147829 15.4831 0.20501 15.9842C0.251183 16.5558 0.35405 16.998 0.513611 17.3104C1.0786 18.3528 1.9291 19.2214 3.06512 19.916C5.15957 21.1853 6.78352 21.8533 7.93688 21.9198C7.64016 21.3484 7.40024 20.7758 7.2172 20.2015L6.16632 16.3043C6.04962 16.1127 5.9376 15.9886 5.83015 15.9321C4.9701 15.5064 4.41797 15.1922 4.17386 14.9898C3.72499 14.6415 3.31644 14.2435 2.94832 13.7962C2.60105 13.3285 2.3584 12.8868 2.22036 12.4709C2.11428 12.2002 1.99339 11.6414 1.85741 10.7941C1.82214 10.6808 1.78922 10.6177 1.75892 10.6045ZM11.0884 17.0957L11.0498 17.4584C10.9872 18.4161 11.2496 19.3026 11.8364 20.1187C12.2373 20.5648 12.491 20.8161 12.5974 20.8723C12.7827 21.019 12.9792 21.1521 13.1867 21.2713C13.6014 21.5098 14.06 21.6933 14.5625 21.8215C15.0832 21.9227 15.5817 21.9738 16.058 21.9753C16.222 21.9755 16.3835 21.9701 16.542 21.9588C16.9263 21.9185 17.1525 21.8871 17.2203 21.8643C17.5103 21.8039 17.7851 21.7191 18.045 21.6098C18.7308 21.244 19.2767 20.807 19.6824 20.299C19.9091 20.0246 20.048 19.6878 20.0998 19.2877L19.9764 19.3716C19.7978 19.635 19.6624 19.7868 19.5705 19.8271C19.4452 19.9207 19.2967 20.0094 19.1245 20.0929C18.8256 20.2476 18.3425 20.4063 17.6754 20.5692C17.3096 20.6606 16.9111 20.7058 16.4797 20.7046C16.4482 20.7055 16.4156 20.7058 16.3819 20.7058C16.0256 20.7049 15.5403 20.6463 14.9259 20.5301C14.7403 20.484 14.5587 20.429 14.3819 20.3646L14.1196 20.2614C13.9468 20.1879 13.7785 20.1054 13.6143 20.0138C13.286 19.8303 12.975 19.6105 12.6812 19.354C12.4618 19.1729 12.2351 18.9236 12.0009 18.606C11.8294 18.4063 11.5253 17.9029 11.0884 17.0957ZM8.03458 17.9423L8.06858 18.1992C8.08124 18.4456 8.24265 18.9258 8.55203 19.6401C8.7603 20.0811 9.00568 20.506 9.28847 20.9151C9.76052 21.5344 10.1141 21.9323 10.3501 22.1089C10.6349 22.3613 10.971 22.601 11.3588 22.8277C11.7665 23.0645 12.1982 23.2423 12.654 23.3615C13.1857 23.4743 13.5286 23.531 13.6824 23.5313C13.6964 23.5315 13.7089 23.531 13.7196 23.53C13.8288 23.5344 13.9373 23.5369 14.0451 23.5371C14.8094 23.5393 15.5361 23.4391 16.2249 23.237L15.542 23.0997L15.0573 22.9737L14.5557 22.8127C14.2158 22.6939 13.8645 22.5518 13.5021 22.3863C12.8872 22.1242 12.0074 21.6316 10.8623 20.909C9.97503 20.3106 9.03237 19.3216 8.03458 17.9423ZM24.8572 12.1248H24.8118L24.7754 12.1253L25.2836 13.3039C25.3747 13.5436 25.4562 13.794 25.5282 14.0544C25.6722 14.5756 25.7776 15.1384 25.8447 15.7429C25.9505 16.884 25.9908 17.8936 25.9654 18.772C25.9619 19.0629 25.8878 19.9313 25.7437 21.3774C25.7075 21.8744 25.6951 22.2055 25.7063 22.3706C25.731 23.111 25.8507 23.5521 26.0654 23.6939L26.1317 23.6632C26.3225 23.2847 26.4841 23.0053 26.6172 22.8247C27.8659 21.3516 28.5763 20.4479 28.7491 20.1138C28.9778 19.6817 29.1227 19.2916 29.1843 18.9433C29.2229 18.7512 29.2484 18.5512 29.2611 18.3438C29.2736 18.1366 29.2734 17.9214 29.2598 17.6988L29.2299 17.359C29.1953 17.025 29.1431 16.7035 29.0741 16.3939L28.9577 15.9387C28.8714 15.6415 28.7681 15.3563 28.6474 15.0833C28.4065 14.5378 28.0967 14.0409 27.7188 13.5927C27.5355 13.3759 27.3462 13.1833 27.1502 13.0145C27.0604 12.8998 26.7519 12.7008 26.2253 12.4169C25.7948 12.2235 25.3387 12.126 24.8572 12.1248ZM24.9589 4.70197L25.0884 4.884C25.4016 5.31216 25.7088 5.89884 26.01 6.64433C26.2222 7.19464 26.5349 8.21504 26.9484 9.70564C27.05 10.008 27.136 10.235 27.2065 10.3865C27.3187 10.6379 27.4581 10.8778 27.625 11.1071C28.689 12.3594 29.2758 13.1035 29.385 13.3386C29.8569 14.2737 30.1325 15.1143 30.2117 15.8604C30.2982 16.4079 30.3282 16.9746 30.3015 17.5612C30.2159 18.6008 30.0946 19.3645 29.9367 19.8519C29.7891 20.4496 29.5718 21.0669 29.2856 21.7042C29.1097 22.1709 28.6439 22.9982 27.8876 24.1864C27.8432 24.2994 27.8365 24.3785 27.8673 24.424L27.9421 24.4669L28.7651 24.1879L29.5379 23.8155C30.0362 23.536 30.5008 23.1943 30.9319 22.7904C31.3631 22.3865 31.7606 21.9205 32.1247 21.3921L32.6454 20.553C32.9758 19.9624 33.2725 19.3097 33.5356 18.595C33.6563 18.3446 33.7808 17.8668 33.9087 17.1619C33.9701 16.7496 34.0005 16.3131 34 15.8525C33.9795 15.3381 33.9439 14.9918 33.8927 14.8137C33.5201 13.7483 33.3331 13.1315 33.3314 12.9632C33.3054 12.5109 33.3326 11.6283 33.4135 10.3158C33.4145 9.98199 33.4037 9.74565 33.381 9.6069C33.3468 9.31231 33.2751 9.02367 33.1656 8.74146C33.0564 8.45897 32.9092 8.1829 32.7244 7.91268L32.4192 7.51197C31.9743 6.98382 31.379 6.48005 30.633 6.00075C29.5057 5.4063 28.695 5.06997 28.2011 4.99138C28.039 4.92431 27.5447 4.84572 26.7188 4.75609C26.553 4.74525 26.3866 4.73959 26.2202 4.73911C25.9215 4.73834 25.622 4.75408 25.3218 4.78622L24.9589 4.70197ZM24.6677 18.9106L24.6515 18.9135C24.605 18.9285 24.5337 19.0047 24.438 19.1415C23.9365 19.9708 23.5843 20.5243 23.3821 20.8016C22.9577 21.359 22.6599 21.7235 22.4893 21.8955C21.957 22.4725 21.2305 22.9857 20.31 23.4344C18.9475 23.9683 17.5739 24.3227 16.1897 24.4981C15.7281 24.5566 15.2655 24.5951 14.8017 24.6139C14.5902 24.6239 14.3702 24.6285 14.142 24.6279C13.6777 24.6266 13.1782 24.603 12.6443 24.5573L12.1154 24.5777C12.0261 24.8816 12.206 25.2903 12.6548 25.8037C12.846 26.0403 13.1992 26.3572 13.7144 26.7542C13.9937 26.9532 14.259 27.1003 14.5106 27.1949C14.7019 27.2752 14.9446 27.3447 15.2388 27.4042C15.7241 27.4975 16.4575 27.5805 17.4388 27.6535C18.2136 27.8448 18.8919 27.9881 19.4737 28.0832C19.6365 28.1055 19.8013 28.1167 19.9679 28.1173C20.1647 28.1178 20.3642 28.1033 20.5664 28.0736C20.941 28.0144 21.326 27.8955 21.7218 27.7161C22.5809 27.2138 23.0632 26.8971 23.1687 26.7657C23.4484 26.5353 23.7005 26.2918 23.925 26.0356C24.4375 25.3724 24.7118 24.9592 24.7474 24.7956C25.4404 22.8425 25.4137 20.8809 24.6677 18.9106ZM1.16169 18.7855L0.900433 19.0909C0.248066 20.0347 -0.0498192 22.0122 0.00677709 25.0238C0.00112721 25.2338 0.135945 25.7434 0.411134 26.5528C0.538938 26.8625 0.692069 27.1521 0.870528 27.4218C1.22735 27.961 1.68538 28.4199 2.24452 28.799C2.68365 29.0519 3.11041 29.2176 3.525 29.2954C3.78421 29.3532 4.35164 29.4045 5.22717 29.45C5.39648 29.473 5.53636 29.5079 5.64741 29.5549C5.86483 29.6418 6.06608 29.7693 6.25058 29.9373C7.09602 30.9284 7.68156 31.5146 8.00643 31.696C8.66883 32.1149 9.46381 32.3419 10.3919 32.3772C13.0348 32.0923 15.0767 31.0413 16.5173 29.2242L17.0333 28.5069C16.034 29.1962 15.0922 29.5782 14.2079 29.6526C14.0897 29.6656 13.9717 29.672 13.8538 29.6715C13.2291 29.6698 12.6044 29.4804 11.9798 29.1033C11.5418 28.8267 11.1513 28.3087 10.8077 27.5498C10.6156 27.0875 10.4633 26.2098 10.351 24.916C10.3189 24.7843 10.2511 24.6664 10.148 24.5625C10.078 24.48 9.90323 24.3928 9.62337 24.3006C8.3276 24.0248 7.41046 23.7914 6.87158 23.6005C6.11966 23.3421 5.38498 22.9997 4.66803 22.5734C3.64345 21.8834 2.98446 21.3379 2.69106 20.937C2.46993 20.6879 2.26576 20.4268 2.07863 20.1531C1.8915 19.8796 1.72142 19.594 1.56829 19.2957L1.16169 18.7855ZM25.7636 25.0263L25.7235 25.1171C25.239 25.9369 24.93 26.4076 24.796 26.529C24.5671 26.8161 24.3227 27.0858 24.0629 27.3376C23.6053 27.8051 22.9627 28.2737 22.1352 28.7434C21.6614 29.0134 21.0295 29.2848 20.2392 29.5577C19.8709 29.6897 18.632 29.9955 16.5224 30.4749C16.1031 30.5892 15.843 30.7215 15.7426 30.8716C16.0719 31.3132 16.2962 31.5666 16.4148 31.6316C16.5972 31.786 16.8018 31.9308 17.0283 32.0658C17.3797 32.3052 18.0228 32.5675 18.9578 32.8528C19.2967 32.95 19.6348 32.999 19.9724 33C20.5961 33.0017 21.2178 32.8394 21.8374 32.513C22.0986 32.3539 22.6196 31.8928 23.4003 31.1297C24.3881 30.5002 24.9514 30.1186 25.0906 29.9847C25.4185 29.7138 25.7026 29.3568 25.9427 28.9141C26.2117 28.4661 26.3497 27.9613 26.3559 27.3995C26.3589 27.1187 26.3292 26.8237 26.2667 26.5142L26.1482 26.0396C26.0529 25.7161 25.9247 25.3783 25.7636 25.0263Z" fill="#E94646"/>
</svg>
